<svg width="375" height="376" viewBox="0 0 375 376" fill="none" xmlns="http://www.w3.org/2000/svg">
<g id="menu-close">
<g id="White_card">
<path id="Vector" d="M237.848 258.287L189.219 70.1462C186.454 59.5685 175.505 53.0727 164.928 55.8377L54.2758 84.4845C43.6982 87.2495 37.2023 98.1984 39.9673 108.776L88.5963 296.917C91.3613 307.495 102.31 313.991 112.888 311.226L223.54 282.579C234.125 279.958 240.621 269.01 237.848 258.287ZM230.1 270.176C228.245 273.325 225.321 275.518 221.892 276.435L111.24 305.082C110.381 305.275 109.377 305.475 108.509 305.524C102.285 305.726 96.5408 301.55 94.9012 295.551L46.2722 107.409C45.3559 103.98 45.8773 100.325 47.7402 97.3209C49.595 94.172 52.5182 91.9788 55.9477 91.0625L166.6 62.4156C167.459 62.2227 168.463 62.0217 169.33 61.9733C175.555 61.7714 181.299 65.9469 182.939 71.9466L231.559 259.943C232.476 263.373 231.954 267.027 230.1 270.176Z" fill="#FFFFFF"/>
<path id="Vector_2" d="M160.2 202.576C168.497 200.518 173.194 191.12 170.791 181.827C169.287 175.675 164.925 172.872 160.435 170.367C151.752 165.485 134.505 157.89 130.544 149.265C131.22 158.799 119.721 173.652 114.542 182.207C111.885 186.561 109.387 191.196 111.035 197.34C113.438 206.633 122.034 212.535 130.323 210.332C138.619 208.274 143.316 198.876 140.913 189.583C143.316 198.876 151.912 204.778 160.2 202.576Z" fill="#FFFFFF"/>
<path id="Vector_3" d="M138.019 218.315L147.601 215.895L157.182 213.476C151.808 210.73 145.012 205.888 141.146 191.166C145.157 205.88 141.512 213.334 138.019 218.315Z" fill="#FFFFFF"/>
<path id="Vector_4" d="M105.359 126.739C105.343 126.45 104.179 126.37 103.448 126.266C102.717 126.162 101.986 126.057 101.408 126.09L81.266 97.7725L77.6919 98.6968L73.2406 133.316C72.6784 133.637 72.1162 133.958 71.5621 134.424C71.008 134.89 70.0201 135.381 70.0443 135.814L70.406 137.099L82.9835 133.788L82.6218 132.503C79.8588 132.367 79.2724 132.254 77.8267 132.335L78.3793 124.038L89.1016 121.265L93.8337 128.107C93.2716 128.428 92.5648 128.758 92.0026 129.079C91.3039 129.553 90.1715 130.052 90.1876 130.341L90.5493 131.626L105.705 127.735L105.359 126.739ZM78.6035 120.255L79.662 110.624L79.7174 106.415L79.862 106.407L81.7983 109.925L87.1813 118.036L78.6035 120.255Z" fill="#FFFFFF"/>
<path id="Vector_5" d="M221.583 257.889C221.567 257.6 220.403 257.52 219.672 257.415C218.941 257.311 218.21 257.207 217.631 257.239L197.49 228.922L193.916 229.846L189.464 264.465C188.902 264.786 188.34 265.108 187.786 265.574C187.232 266.04 186.244 266.53 186.268 266.964L186.63 268.249L199.215 265.082L198.854 263.797C196.091 263.661 195.504 263.548 194.059 263.629L194.764 255.468L205.486 252.695L210.218 259.537C209.656 259.859 208.949 260.188 208.387 260.51C207.688 260.984 206.556 261.482 206.572 261.771L206.934 263.056L222.09 259.166L221.583 257.889ZM194.819 251.259L195.878 241.629L195.933 237.42L196.078 237.412L198.014 240.93L203.397 249.041L194.819 251.259Z" fill="#FFFFFF"/>
</g>
<g id="black-card">
<path id="Vector_6" d="M244.334 70.3671L129.27 70.9535C118.558 70.972 109.783 79.7578 109.835 90.6109L110.952 285.477C111.004 296.33 119.757 304.964 130.61 304.912L245.674 304.325C256.386 304.307 265.161 295.521 265.109 284.668L263.991 89.8023C263.939 78.9492 255.153 70.1742 244.334 70.3671Z" fill="#FFFFFF"/>
<path id="Vector_7" d="M244.012 249.798C243.938 250.113 242.845 250.522 241.999 250.724C241.328 251.032 240.624 251.2 240.027 251.193L230.547 263.272C231.238 264.298 232.278 265.539 233.21 266.955C234.283 268.337 235.356 269.719 236.57 271.067C237.817 272.557 238.89 273.938 240.138 275.428C241.385 276.917 242.914 278.339 243.954 279.58L246.677 281.016L246.757 283.23L237.554 283.336L235.535 281.732C234.704 280.739 233.805 279.465 232.94 278.331C232.041 277.057 231.143 275.782 230.244 274.507C229.345 273.233 228.554 271.784 227.655 270.509C226.898 269.201 225.965 267.786 225.208 266.477L222.961 266.417L222.985 279.658C224.354 279.779 224.562 280.027 225.192 280.175C225.856 280.463 225.608 280.671 226.869 280.966L226.842 283.354L211.213 283.352L211.24 280.964C212.508 280.662 212.441 280.381 213.252 280.039C213.923 279.73 215.225 279.569 215.191 279.429L215.021 251.189C214.987 251.048 213.619 250.927 212.955 250.639C212.291 250.35 212.506 250.001 211.104 249.74L211.124 247.949L226.753 247.951L226.733 249.742C225.465 250.044 225.532 250.325 225.002 250.6C224.331 250.909 224.083 251.117 222.782 251.277L222.813 263.921L225.772 263.218L233.776 251.192C233.145 251.044 232.655 250.863 231.991 250.574C231.327 250.286 230.523 250.031 230.455 249.749L230.476 247.958L243.543 247.826L244.012 249.798Z" fill="black"/>
<path id="Vector_8" d="M134.916 124.086C134.99 123.771 136.258 123.469 136.929 123.161C137.6 122.852 137.566 122.711 138.867 122.551L138.697 94.3112C137.329 94.1902 137.295 94.0494 136.631 93.7609C135.967 93.4723 134.847 93.1435 134.78 92.8617L134.807 90.4738L149.209 90.3217L149.182 92.7096C149.249 92.9914 148.122 93.2595 147.451 93.568C146.78 93.8764 146.532 94.0843 145.231 94.2451L145.262 106.889L148.502 106.118L156.647 94.059C156.017 93.9113 155.386 93.7637 154.722 93.4751C154.058 93.1866 153.112 92.9651 153.045 92.6834L153.073 90.2954L166.139 90.1632L166.112 92.5512C166.038 92.8664 165.086 93.2419 164.415 93.5504C163.744 93.8588 163.18 93.9929 162.476 94.1605L153.137 106.206C153.828 107.233 154.867 108.474 155.94 109.856C157.013 111.237 158.087 112.619 159.3 113.968C160.548 115.457 161.621 116.839 162.868 118.328C164.116 119.818 165.33 121.166 166.543 122.515L168.985 124.017L169.038 125.493L160.258 125.499L158.306 124.177C157.475 123.184 156.643 122.191 155.744 120.917C154.846 119.642 153.981 118.508 153.082 117.234C152.183 115.959 151.318 114.825 150.56 113.517C149.662 112.243 148.971 111.216 148.213 109.908L145.544 109.948L145.575 122.592C146.944 122.713 147.151 122.961 147.782 123.109C148.446 123.397 149.533 123.585 149.459 123.9L149.405 125.551L135.003 125.703L134.916 124.086Z" fill="black"/>
<path id="Vector_9" d="M172.627 211.265C164.162 211.344 157.087 203.502 157.055 193.984C157.022 187.591 160.437 183.802 164.201 180.227C171.339 173.319 186.117 161.617 187.769 152.293C189.558 161.691 204.354 173.204 211.651 180.1C215.299 183.549 218.907 187.453 218.94 193.845C219.006 203.505 212.069 211.258 203.604 211.337C195.138 211.416 188.063 203.574 188.031 194.055C188.03 203.433 181.126 211.327 172.627 211.265Z" fill="black"/>
<path id="Vector_10" d="M188.017 195.249C188.089 210.563 193.461 216.876 198.122 220.827L178.207 220.952C182.641 217.069 188.089 210.563 188.017 195.249Z" fill="black"/>
</g>
</g>
</svg>
