<svg width="375" height="376" viewBox="0 0 375 376" fill="none" xmlns="http://www.w3.org/2000/svg">
<g id="menu-close">
<g id="White_card">
<path id="Vector" d="M265.731 281.912L263.372 87.6022C263.209 76.6703 254.125 67.7508 243.193 67.9136L128.902 69.3464C117.97 69.5092 109.051 78.5931 109.214 89.5249L111.573 283.835C111.736 294.767 120.82 303.686 131.752 303.523L246.043 302.09C256.948 302.07 265.867 292.986 265.731 281.912ZM255.371 291.61C252.819 294.226 249.457 295.659 245.908 295.731L131.617 297.163C130.736 297.146 129.713 297.102 128.859 296.942C122.766 295.653 118.184 290.229 118.022 284.011L115.663 89.7013C115.591 86.1522 116.969 82.7273 119.494 80.2539C122.046 77.6382 125.408 76.2053 128.957 76.1333L243.248 74.7004C244.129 74.718 245.152 74.7622 246.006 74.9221C252.099 76.2104 256.681 81.6352 256.843 87.8528L259.229 282.02C259.301 285.569 257.923 288.994 255.371 291.61Z" fill="#FFFFFF"/>
<path id="Vector_2" d="M203.609 209.291C212.157 209.271 218.96 201.264 218.842 191.666C218.849 185.333 215.282 181.571 211.518 178.067C204.249 171.256 189.312 159.767 187.522 150.445C185.905 159.866 171.196 171.548 164.126 178.621C160.507 182.216 156.976 186.122 157.111 192.481C157.229 202.079 164.169 209.861 172.744 209.698C181.292 209.678 188.094 201.671 187.977 192.074C188.094 201.671 195.034 209.453 203.609 209.291Z" fill="#FFFFFF"/>
<path id="Vector_3" d="M178.314 219.286L188.197 219.221L198.079 219.156C193.515 215.208 188.07 208.885 187.826 193.666C188.212 208.912 182.894 215.282 178.314 219.286Z" fill="#FFFFFF"/>
<path id="Vector_4" d="M168.435 122.564C168.489 122.28 167.377 121.924 166.692 121.649C166.007 121.373 165.322 121.097 164.753 120.991L151.945 88.6874L148.254 88.7328L135.675 121.291C135.052 121.469 134.43 121.647 133.781 121.968C133.131 122.288 132.055 122.529 131.975 122.956L132.02 124.29L145.024 124.073L144.979 122.739C142.329 121.948 141.786 121.699 140.363 121.433L142.878 113.507L153.952 113.37L156.916 121.144C156.294 121.322 155.529 121.473 154.906 121.651C154.114 121.945 152.896 122.159 152.843 122.444L152.887 123.778L168.534 123.614L168.435 122.564ZM143.998 109.886L147.322 100.786L148.38 96.7115L148.522 96.7382L149.564 100.616L152.857 109.777L143.998 109.886Z" fill="#FFFFFF"/>
<path id="Vector_5" d="M250.031 277.646C250.084 277.361 248.972 277.006 248.287 276.73C247.602 276.455 246.917 276.179 246.348 276.073L233.54 243.769L229.849 243.815L217.27 276.373C216.648 276.551 216.025 276.729 215.376 277.05C214.726 277.37 213.65 277.61 213.57 278.037L213.615 279.372L226.593 279.297L226.548 277.963C223.897 277.172 223.354 276.923 221.931 276.657L224.562 268.9L235.636 268.764L238.6 276.537C237.978 276.715 237.213 276.866 236.59 277.045C235.799 277.338 234.58 277.552 234.527 277.837L234.571 279.171L250.218 279.007L250.031 277.646ZM225.62 264.825L228.944 255.725L230.002 251.651L230.144 251.678L231.186 255.556L234.479 264.717L225.62 264.825Z" fill="#FFFFFF"/>
</g>#FFFFFF
<g id="black-card">
<path id="Vector_6" d="M244.334 70.3671L129.27 70.9535C118.558 70.972 109.783 79.7578 109.835 90.6109L110.952 285.477C111.004 296.33 119.757 304.964 130.61 304.912L245.674 304.325C256.386 304.307 265.161 295.521 265.109 284.668L263.991 89.8023C263.939 78.9492 255.153 70.1742 244.334 70.3671Z" fill="#FFFFFF"/>
<path id="Vector_7" d="M244.012 249.798C243.938 250.113 242.845 250.522 241.999 250.724C241.328 251.032 240.624 251.2 240.027 251.193L230.547 263.272C231.238 264.298 232.278 265.539 233.21 266.955C234.283 268.337 235.356 269.719 236.57 271.067C237.817 272.557 238.89 273.938 240.138 275.428C241.385 276.917 242.914 278.339 243.954 279.58L246.677 281.016L246.757 283.23L237.554 283.336L235.535 281.732C234.704 280.739 233.805 279.465 232.94 278.331C232.041 277.057 231.143 275.782 230.244 274.507C229.345 273.233 228.554 271.784 227.655 270.509C226.898 269.201 225.965 267.786 225.208 266.477L222.961 266.417L222.985 279.658C224.354 279.779 224.562 280.027 225.192 280.175C225.856 280.463 225.608 280.671 226.869 280.966L226.842 283.354L211.213 283.352L211.24 280.964C212.508 280.662 212.441 280.381 213.252 280.039C213.923 279.73 215.225 279.569 215.191 279.429L215.021 251.189C214.987 251.048 213.619 250.927 212.955 250.639C212.291 250.35 212.506 250.001 211.104 249.74L211.124 247.949L226.753 247.951L226.733 249.742C225.465 250.044 225.532 250.325 225.002 250.6C224.331 250.909 224.083 251.117 222.782 251.277L222.813 263.921L225.772 263.218L233.776 251.192C233.145 251.044 232.655 250.863 231.991 250.574C231.327 250.286 230.523 250.031 230.455 249.749L230.476 247.958L243.543 247.826L244.012 249.798Z" fill="black"/>
<path id="Vector_8" d="M134.916 124.086C134.99 123.771 136.258 123.469 136.929 123.161C137.6 122.852 137.566 122.711 138.867 122.551L138.697 94.3112C137.329 94.1902 137.295 94.0494 136.631 93.7609C135.967 93.4723 134.847 93.1435 134.78 92.8617L134.807 90.4738L149.209 90.3217L149.182 92.7096C149.249 92.9914 148.122 93.2595 147.451 93.568C146.78 93.8764 146.532 94.0843 145.231 94.2451L145.262 106.889L148.502 106.118L156.647 94.059C156.017 93.9113 155.386 93.7637 154.722 93.4751C154.058 93.1866 153.112 92.9651 153.045 92.6834L153.073 90.2954L166.139 90.1632L166.112 92.5512C166.038 92.8664 165.086 93.2419 164.415 93.5504C163.744 93.8588 163.18 93.9929 162.476 94.1605L153.137 106.206C153.828 107.233 154.867 108.474 155.94 109.856C157.013 111.237 158.087 112.619 159.3 113.968C160.548 115.457 161.621 116.839 162.868 118.328C164.116 119.818 165.33 121.166 166.543 122.515L168.985 124.017L169.038 125.493L160.258 125.499L158.306 124.177C157.475 123.184 156.643 122.191 155.744 120.917C154.846 119.642 153.981 118.508 153.082 117.234C152.183 115.959 151.318 114.825 150.56 113.517C149.662 112.243 148.971 111.216 148.213 109.908L145.544 109.948L145.575 122.592C146.944 122.713 147.151 122.961 147.782 123.109C148.446 123.397 149.533 123.585 149.459 123.9L149.405 125.551L135.003 125.703L134.916 124.086Z" fill="black"/>
<path id="Vector_9" d="M172.627 211.265C164.162 211.344 157.087 203.502 157.055 193.984C157.022 187.591 160.437 183.802 164.201 180.227C171.339 173.319 186.117 161.617 187.769 152.293C189.558 161.691 204.354 173.204 211.651 180.1C215.299 183.549 218.907 187.453 218.94 193.845C219.006 203.505 212.069 211.258 203.604 211.337C195.138 211.416 188.063 203.574 188.031 194.055C188.03 203.433 181.126 211.327 172.627 211.265Z" fill="black"/>
<path id="Vector_10" d="M188.017 195.249C188.089 210.563 193.461 216.876 198.122 220.827L178.207 220.952C182.641 217.069 188.089 210.563 188.017 195.249Z" fill="black"/>
</g>
</g>
</svg>
